<svg xmlns="http://www.w3.org/2000/svg" xmlns:xlink="http://www.w3.org/1999/xlink" preserveAspectRatio="xMidYMid" width="20" height="28" viewBox="0 0 20 28">
  <defs>
    <style>
      .cls-1 {
        fill: #fc1753;
        fill-rule: evenodd;
      }
    </style>
  </defs>
  <path d="M10.000,0.001 C4.486,0.001 0.000,4.625 0.000,10.309 C0.000,11.791 0.295,13.207 0.875,14.516 C3.375,20.155 8.168,26.109 9.578,27.800 C9.684,27.926 9.838,27.999 10.000,27.999 C10.162,27.999 10.316,27.926 10.422,27.800 C11.831,26.110 16.625,20.156 19.126,14.516 C19.706,13.207 20.000,11.791 20.000,10.309 C19.999,4.625 15.513,0.001 10.000,0.001 ZM10.000,15.662 C7.136,15.662 4.805,13.260 4.805,10.308 C4.805,7.356 7.136,4.954 10.000,4.954 C12.864,4.954 15.194,7.356 15.194,10.308 C15.194,13.260 12.864,15.662 10.000,15.662 Z" class="cls-1"/>
</svg>
