<svg xmlns="http://www.w3.org/2000/svg" xmlns:xlink="http://www.w3.org/1999/xlink" preserveAspectRatio="xMidYMid" width="29" height="29" viewBox="0 0 29 29">
  <defs>
    <style>
      .cls-1 {
        fill: #fc1753;
        fill-rule: evenodd;
      }
    </style>
  </defs>
  <path d="M14.500,29.000 C6.504,29.000 -0.000,22.496 -0.000,14.500 C-0.000,6.505 6.504,-0.001 14.500,-0.001 C22.496,-0.001 29.000,6.505 29.000,14.500 C29.000,22.496 22.496,29.000 14.500,29.000 ZM14.500,3.085 C8.206,3.085 3.085,8.205 3.085,14.500 C3.085,20.794 8.206,25.915 14.500,25.915 C20.794,25.915 25.915,20.794 25.915,14.500 C25.915,8.205 20.794,3.085 14.500,3.085 ZM22.057,16.440 L14.347,16.440 C13.688,16.440 13.153,15.905 13.153,15.246 L13.153,6.217 C13.153,5.558 13.688,5.023 14.347,5.023 C15.006,5.023 15.541,5.558 15.541,6.217 L15.541,14.052 L22.057,14.052 C22.716,14.052 23.251,14.587 23.251,15.246 C23.251,15.905 22.716,16.440 22.057,16.440 Z" class="cls-1"/>
</svg>
